name C:\Users\antoi\Documents\MyRepositories\predictsim_mtp\Results\Case_40\GRF.mot
datacolumns 19
datarows 10
range 0.55633428 0.60640436
endheader 
time	r_ground_force_vx	r_ground_force_vy	r_ground_force_vz	r_ground_force_px	r_ground_force_py	r_ground_force_pz	l_ground_force_vx	l_ground_force_vy	l_ground_force_vz	l_ground_force_px	l_ground_force_py	l_ground_force_pz	r_ground_torque_x	r_ground_torque_y	r_ground_torque_z	l_ground_torque_x	l_ground_torque_y	l_ground_torque_z	
          0.55633428	         79.13879573	        457.60017569	         -6.16068960	          0.43012640	          0.00000000	          0.05832645	        -51.91890925	         48.54075780	        -18.91333871	          0.94773133	          0.00000000	         -0.04227542	          0.00000000	          3.01546040	          0.00000000	          0.00000000	          0.00000014	          0.00000000	
          0.56189762	         73.78572084	        429.32097485	         -4.84994555	          0.43373899	          0.00000000	          0.05932914	        -84.41693941	         99.25403895	        -47.77991098	          0.95012313	          0.00000000	         -0.04178746	          0.00000000	          2.87821899	          0.00000000	          0.00000000	          0.00000074	          0.00000000	
          0.56746096	         68.85353736	        399.65238937	         -2.82952259	          0.43753279	          0.00000000	          0.06030894	        -42.88272714	        175.01597388	        -49.84689515	          0.95283285	          0.00000000	         -0.04089563	          0.00000000	          2.73004698	          0.00000000	          0.00000000	          0.00003982	          0.00000000	
          0.57302431	         65.04285065	        369.90837236	         -0.96018276	          0.44129834	          0.00000000	          0.06138254	        -30.56679128	        264.61303282	        -20.49982378	          0.95388250	          0.00000000	         -0.03986011	          0.00000000	          2.48613160	          0.00000000	          0.00000000	          0.00025219	          0.00000000	
          0.57858765	         60.48878908	        342.76532625	          0.43632252	          0.44463596	          0.00000000	          0.06242442	        -34.72815753	        354.19732198	         -2.09185246	          0.95441963	          0.00000000	         -0.03934986	          0.00000000	          2.19403238	          0.00000000	          0.00000000	          0.00162656	          0.00000000	
          0.58415099	         56.27862376	        319.71458273	          1.52341622	          0.44682793	          0.00000000	          0.06319974	        -43.52655076	        434.78829221	          5.42628424	          0.95486329	          0.00000000	         -0.03915268	          0.00000000	          1.94807087	          0.00000000	          0.00000000	          0.00889152	          0.00000000	
          0.58971433	         53.08036745	        300.86404444	          4.66569240	          0.44732739	          0.00000000	          0.06260555	        -55.26610690	        502.07186211	          8.53866051	          0.95534612	          0.00000000	         -0.03910791	          0.00000000	          1.83111079	          0.00000000	          0.00000000	          0.03843654	          0.00000000	
          0.59527768	         51.07828980	        279.93875302	          8.05242799	          0.44792146	          0.00000000	          0.06187181	        -66.43486647	        555.87004453	          9.94930196	          0.95607353	          0.00000000	         -0.03920983	          0.00000000	          1.68676508	          0.00000000	          0.00000000	          0.12014115	          0.00000000	
          0.60084102	         48.54872942	        256.87858204	         11.15207329	          0.44862871	          0.00000000	          0.06102458	        -73.23270685	        596.25795616	         10.32803180	          0.95707777	          0.00000000	         -0.03943015	          0.00000000	          1.51638011	          0.00000000	          0.00000000	          0.24711688	          0.00000000	
          0.60640436	         45.49248377	        231.98738537	         13.26421899	          0.44945811	          0.00000000	          0.05997877	        -79.07430944	        626.49274645	         10.28412412	          0.95854367	          0.00000000	         -0.03986382	          0.00000000	          1.32799799	          0.00000000	          0.00000000	          0.46235870	          0.00000000	
